<mxfile host="app.diagrams.net" agent="Mozilla/5.0 (Macintosh; Intel Mac OS X 10_15_7) AppleWebKit/537.36 (KHTML, like Gecko) Chrome/131.0.0.0 Safari/537.36 Edg/131.0.0.0" version="24.8.0">
  <diagram name="第 1 页" id="Mp8tOPffEF1rVt3VJn_L">
    <mxGraphModel dx="1216" dy="776" grid="1" gridSize="10" guides="1" tooltips="1" connect="1" arrows="1" fold="1" page="1" pageScale="1" pageWidth="827" pageHeight="1169" math="0" shadow="0">
      <root>
        <mxCell id="0" />
        <mxCell id="1" parent="0" />
        <mxCell id="WQSdrnmGpLRCLVuS_tFA-21" style="edgeStyle=orthogonalEdgeStyle;rounded=0;orthogonalLoop=1;jettySize=auto;html=1;exitX=1;exitY=0.5;exitDx=0;exitDy=0;shadow=1;" edge="1" parent="1" source="WQSdrnmGpLRCLVuS_tFA-1">
          <mxGeometry relative="1" as="geometry">
            <mxPoint x="610" y="270" as="targetPoint" />
          </mxGeometry>
        </mxCell>
        <mxCell id="WQSdrnmGpLRCLVuS_tFA-1" value="PointNet++&lt;div&gt;Backbone&lt;/div&gt;" style="rounded=0;whiteSpace=wrap;html=1;fillColor=#d5e8d4;strokeColor=#82b366;shadow=1;" vertex="1" parent="1">
          <mxGeometry x="380" y="240" width="120" height="60" as="geometry" />
        </mxCell>
        <mxCell id="WQSdrnmGpLRCLVuS_tFA-23" style="edgeStyle=orthogonalEdgeStyle;rounded=0;orthogonalLoop=1;jettySize=auto;html=1;exitX=1;exitY=0.5;exitDx=0;exitDy=0;shadow=1;" edge="1" parent="1" source="WQSdrnmGpLRCLVuS_tFA-3">
          <mxGeometry relative="1" as="geometry">
            <mxPoint x="610" y="525" as="targetPoint" />
          </mxGeometry>
        </mxCell>
        <mxCell id="WQSdrnmGpLRCLVuS_tFA-3" value="DeepCAD encoder" style="rounded=0;whiteSpace=wrap;html=1;fillColor=#f8cecc;strokeColor=#b85450;shadow=1;" vertex="1" parent="1">
          <mxGeometry x="380" y="495" width="120" height="60" as="geometry" />
        </mxCell>
        <mxCell id="WQSdrnmGpLRCLVuS_tFA-16" style="edgeStyle=orthogonalEdgeStyle;rounded=0;orthogonalLoop=1;jettySize=auto;html=1;exitX=1;exitY=1;exitDx=0;exitDy=0;entryX=0.5;entryY=0;entryDx=0;entryDy=0;shadow=1;" edge="1" parent="1" target="WQSdrnmGpLRCLVuS_tFA-7">
          <mxGeometry relative="1" as="geometry">
            <mxPoint x="120" y="420" as="sourcePoint" />
          </mxGeometry>
        </mxCell>
        <mxCell id="WQSdrnmGpLRCLVuS_tFA-17" value="" style="edgeStyle=orthogonalEdgeStyle;rounded=0;orthogonalLoop=1;jettySize=auto;html=1;shadow=1;" edge="1" parent="1" source="WQSdrnmGpLRCLVuS_tFA-5" target="WQSdrnmGpLRCLVuS_tFA-1">
          <mxGeometry relative="1" as="geometry" />
        </mxCell>
        <mxCell id="WQSdrnmGpLRCLVuS_tFA-5" value="pc data" style="ellipse;shape=cloud;whiteSpace=wrap;html=1;fillColor=#ffe6cc;strokeColor=#d79b00;shadow=1;" vertex="1" parent="1">
          <mxGeometry x="220" y="240" width="70" height="60" as="geometry" />
        </mxCell>
        <mxCell id="WQSdrnmGpLRCLVuS_tFA-7" value="CAD seq" style="swimlane;fontStyle=0;childLayout=stackLayout;horizontal=1;startSize=30;horizontalStack=0;resizeParent=1;resizeParentMax=0;resizeLast=0;collapsible=1;marginBottom=0;whiteSpace=wrap;html=1;fillColor=#ffe6cc;strokeColor=#d79b00;shadow=1;" vertex="1" parent="1">
          <mxGeometry x="215" y="480" width="80" height="90" as="geometry" />
        </mxCell>
        <mxCell id="WQSdrnmGpLRCLVuS_tFA-8" value="sketch 0" style="text;strokeColor=#d79b00;fillColor=#ffe6cc;align=left;verticalAlign=middle;spacingLeft=4;spacingRight=4;overflow=hidden;points=[[0,0.5],[1,0.5]];portConstraint=eastwest;rotatable=0;whiteSpace=wrap;html=1;shadow=1;" vertex="1" parent="WQSdrnmGpLRCLVuS_tFA-7">
          <mxGeometry y="30" width="80" height="30" as="geometry" />
        </mxCell>
        <mxCell id="WQSdrnmGpLRCLVuS_tFA-9" value="extrude 0..." style="text;strokeColor=#d79b00;fillColor=#ffe6cc;align=left;verticalAlign=middle;spacingLeft=4;spacingRight=4;overflow=hidden;points=[[0,0.5],[1,0.5]];portConstraint=eastwest;rotatable=0;whiteSpace=wrap;html=1;shadow=1;" vertex="1" parent="WQSdrnmGpLRCLVuS_tFA-7">
          <mxGeometry y="60" width="80" height="30" as="geometry" />
        </mxCell>
        <mxCell id="WQSdrnmGpLRCLVuS_tFA-15" style="edgeStyle=orthogonalEdgeStyle;rounded=0;orthogonalLoop=1;jettySize=auto;html=1;exitX=1;exitY=0;exitDx=0;exitDy=0;entryX=0.55;entryY=0.95;entryDx=0;entryDy=0;entryPerimeter=0;shadow=1;" edge="1" parent="1" target="WQSdrnmGpLRCLVuS_tFA-5">
          <mxGeometry relative="1" as="geometry">
            <mxPoint x="120" y="340" as="sourcePoint" />
          </mxGeometry>
        </mxCell>
        <mxCell id="WQSdrnmGpLRCLVuS_tFA-18" style="edgeStyle=orthogonalEdgeStyle;rounded=0;orthogonalLoop=1;jettySize=auto;html=1;entryX=0;entryY=0.5;entryDx=0;entryDy=0;shadow=1;" edge="1" parent="1" source="WQSdrnmGpLRCLVuS_tFA-8" target="WQSdrnmGpLRCLVuS_tFA-3">
          <mxGeometry relative="1" as="geometry" />
        </mxCell>
        <mxCell id="WQSdrnmGpLRCLVuS_tFA-19" value="CAD dataset" style="rounded=0;whiteSpace=wrap;html=1;fillColor=#ffe6cc;strokeColor=#d79b00;shadow=1;" vertex="1" parent="1">
          <mxGeometry x="30" y="330" width="90" height="100" as="geometry" />
        </mxCell>
        <mxCell id="WQSdrnmGpLRCLVuS_tFA-20" value="&lt;div&gt;MSE&lt;/div&gt;Loss" style="ellipse;whiteSpace=wrap;html=1;aspect=fixed;fillColor=#e1d5e7;strokeColor=#9673a6;shadow=1;" vertex="1" parent="1">
          <mxGeometry x="700" y="360" width="80" height="80" as="geometry" />
        </mxCell>
        <mxCell id="WQSdrnmGpLRCLVuS_tFA-30" style="edgeStyle=orthogonalEdgeStyle;rounded=0;orthogonalLoop=1;jettySize=auto;html=1;exitX=1;exitY=0.5;exitDx=0;exitDy=0;entryX=0.5;entryY=0;entryDx=0;entryDy=0;shadow=1;" edge="1" parent="1" source="WQSdrnmGpLRCLVuS_tFA-26" target="WQSdrnmGpLRCLVuS_tFA-20">
          <mxGeometry relative="1" as="geometry" />
        </mxCell>
        <mxCell id="WQSdrnmGpLRCLVuS_tFA-26" value="Z`" style="ellipse;whiteSpace=wrap;html=1;aspect=fixed;fillColor=#dae8fc;strokeColor=#6c8ebf;shadow=1;" vertex="1" parent="1">
          <mxGeometry x="610" y="255" width="30" height="30" as="geometry" />
        </mxCell>
        <mxCell id="WQSdrnmGpLRCLVuS_tFA-27" value="" style="sketch=0;aspect=fixed;pointerEvents=1;shadow=1;dashed=0;html=1;strokeColor=none;labelPosition=center;verticalLabelPosition=bottom;verticalAlign=top;align=center;fillColor=#00188D;shape=mxgraph.mscae.enterprise.lock" vertex="1" parent="1">
          <mxGeometry x="476.6" y="490" width="23.4" height="30" as="geometry" />
        </mxCell>
        <mxCell id="WQSdrnmGpLRCLVuS_tFA-28" value="" style="sketch=0;aspect=fixed;pointerEvents=1;shadow=1;dashed=0;html=1;strokeColor=none;labelPosition=center;verticalLabelPosition=bottom;verticalAlign=top;align=center;fillColor=#00188D;shape=mxgraph.mscae.enterprise.lock_unlocked" vertex="1" parent="1">
          <mxGeometry x="476.6" y="230" width="22.2" height="30" as="geometry" />
        </mxCell>
        <mxCell id="WQSdrnmGpLRCLVuS_tFA-31" style="edgeStyle=orthogonalEdgeStyle;rounded=0;orthogonalLoop=1;jettySize=auto;html=1;exitX=1;exitY=0.5;exitDx=0;exitDy=0;entryX=0.5;entryY=1;entryDx=0;entryDy=0;shadow=1;" edge="1" parent="1" source="WQSdrnmGpLRCLVuS_tFA-29" target="WQSdrnmGpLRCLVuS_tFA-20">
          <mxGeometry relative="1" as="geometry" />
        </mxCell>
        <mxCell id="WQSdrnmGpLRCLVuS_tFA-29" value="Z" style="ellipse;whiteSpace=wrap;html=1;aspect=fixed;fillColor=#dae8fc;strokeColor=#6c8ebf;shadow=1;" vertex="1" parent="1">
          <mxGeometry x="610" y="510" width="30" height="30" as="geometry" />
        </mxCell>
        <mxCell id="WQSdrnmGpLRCLVuS_tFA-32" style="edgeStyle=orthogonalEdgeStyle;rounded=0;orthogonalLoop=1;jettySize=auto;html=1;exitX=1;exitY=0.5;exitDx=0;exitDy=0;shadow=1;" edge="1" parent="1" source="WQSdrnmGpLRCLVuS_tFA-36">
          <mxGeometry relative="1" as="geometry">
            <mxPoint x="435" y="740" as="targetPoint" />
          </mxGeometry>
        </mxCell>
        <mxCell id="WQSdrnmGpLRCLVuS_tFA-33" value="PointNet++&lt;div&gt;Backbone&lt;/div&gt;" style="rounded=0;whiteSpace=wrap;html=1;fillColor=#d5e8d4;strokeColor=#82b366;shadow=1;" vertex="1" parent="1">
          <mxGeometry x="205" y="710" width="120" height="60" as="geometry" />
        </mxCell>
        <mxCell id="WQSdrnmGpLRCLVuS_tFA-34" value="" style="edgeStyle=orthogonalEdgeStyle;rounded=0;orthogonalLoop=1;jettySize=auto;html=1;shadow=1;" edge="1" parent="1" source="WQSdrnmGpLRCLVuS_tFA-35" target="WQSdrnmGpLRCLVuS_tFA-33">
          <mxGeometry relative="1" as="geometry" />
        </mxCell>
        <mxCell id="WQSdrnmGpLRCLVuS_tFA-35" value="pc data" style="ellipse;shape=cloud;whiteSpace=wrap;html=1;fillColor=#ffe6cc;strokeColor=#d79b00;shadow=1;" vertex="1" parent="1">
          <mxGeometry x="45" y="710" width="70" height="60" as="geometry" />
        </mxCell>
        <mxCell id="WQSdrnmGpLRCLVuS_tFA-39" value="" style="edgeStyle=orthogonalEdgeStyle;rounded=0;orthogonalLoop=1;jettySize=auto;html=1;shadow=1;" edge="1" parent="1" source="WQSdrnmGpLRCLVuS_tFA-36" target="WQSdrnmGpLRCLVuS_tFA-38">
          <mxGeometry relative="1" as="geometry" />
        </mxCell>
        <mxCell id="WQSdrnmGpLRCLVuS_tFA-44" value="" style="edgeStyle=orthogonalEdgeStyle;rounded=0;orthogonalLoop=1;jettySize=auto;html=1;entryX=0;entryY=0.5;entryDx=0;entryDy=0;shadow=1;" edge="1" parent="1" source="WQSdrnmGpLRCLVuS_tFA-38" target="WQSdrnmGpLRCLVuS_tFA-42">
          <mxGeometry relative="1" as="geometry" />
        </mxCell>
        <mxCell id="WQSdrnmGpLRCLVuS_tFA-38" value="DeepCAD encoder" style="rounded=0;whiteSpace=wrap;html=1;fillColor=#f8cecc;strokeColor=#b85450;shadow=1;" vertex="1" parent="1">
          <mxGeometry x="510" y="710" width="120" height="60" as="geometry" />
        </mxCell>
        <mxCell id="WQSdrnmGpLRCLVuS_tFA-40" value="" style="edgeStyle=orthogonalEdgeStyle;rounded=0;orthogonalLoop=1;jettySize=auto;html=1;exitX=1;exitY=0.5;exitDx=0;exitDy=0;shadow=1;" edge="1" parent="1" source="WQSdrnmGpLRCLVuS_tFA-33" target="WQSdrnmGpLRCLVuS_tFA-36">
          <mxGeometry relative="1" as="geometry">
            <mxPoint x="435" y="740" as="targetPoint" />
            <mxPoint x="325" y="740" as="sourcePoint" />
          </mxGeometry>
        </mxCell>
        <mxCell id="WQSdrnmGpLRCLVuS_tFA-36" value="Z`" style="ellipse;whiteSpace=wrap;html=1;aspect=fixed;fillColor=#dae8fc;strokeColor=#6c8ebf;shadow=1;" vertex="1" parent="1">
          <mxGeometry x="399" y="725" width="30" height="30" as="geometry" />
        </mxCell>
        <mxCell id="WQSdrnmGpLRCLVuS_tFA-41" value="CAD seq" style="swimlane;fontStyle=0;childLayout=stackLayout;horizontal=1;startSize=30;horizontalStack=0;resizeParent=1;resizeParentMax=0;resizeLast=0;collapsible=1;marginBottom=0;whiteSpace=wrap;html=1;fillColor=#ffe6cc;strokeColor=#d79b00;shadow=1;" vertex="1" parent="1">
          <mxGeometry x="700" y="695" width="80" height="90" as="geometry" />
        </mxCell>
        <mxCell id="WQSdrnmGpLRCLVuS_tFA-42" value="sketch 0" style="text;strokeColor=#d79b00;fillColor=#ffe6cc;align=left;verticalAlign=middle;spacingLeft=4;spacingRight=4;overflow=hidden;points=[[0,0.5],[1,0.5]];portConstraint=eastwest;rotatable=0;whiteSpace=wrap;html=1;shadow=1;" vertex="1" parent="WQSdrnmGpLRCLVuS_tFA-41">
          <mxGeometry y="30" width="80" height="30" as="geometry" />
        </mxCell>
        <mxCell id="WQSdrnmGpLRCLVuS_tFA-43" value="extrude 0..." style="text;strokeColor=#d79b00;fillColor=#ffe6cc;align=left;verticalAlign=middle;spacingLeft=4;spacingRight=4;overflow=hidden;points=[[0,0.5],[1,0.5]];portConstraint=eastwest;rotatable=0;whiteSpace=wrap;html=1;shadow=1;" vertex="1" parent="WQSdrnmGpLRCLVuS_tFA-41">
          <mxGeometry y="60" width="80" height="30" as="geometry" />
        </mxCell>
      </root>
    </mxGraphModel>
  </diagram>
</mxfile>
